<svg width="512" height="512" viewBox="0 0 512 512" fill="none" xmlns="http://www.w3.org/2000/svg">
<g clip-path="url(#clip0)">
<path d="M260.18 312.67C255.196 311.712 250.702 309.048 247.469 305.135C244.237 301.222 242.469 296.305 242.47 291.23V231.23H159V291.23C158.991 296.303 157.22 301.215 153.989 305.125C150.759 309.036 146.27 311.703 141.29 312.67C141.29 312.67 265.83 313.76 260.18 312.67Z" fill="white"/>
<path d="M283.33 317.13C277.39 315.98 118.11 317.13 118.11 317.13C88.6723 322.798 62.1277 338.542 43.0374 361.656C23.9471 384.77 13.5031 413.811 13.5 443.79V486.33C13.5 488.627 13.9529 490.901 14.8327 493.022C15.7125 495.144 17.002 497.071 18.6274 498.694C20.2529 500.316 22.1823 501.602 24.3053 502.479C26.4283 503.355 28.7033 503.804 31 503.8H370.5C375.133 503.8 379.577 501.959 382.853 498.683C386.129 495.407 387.97 490.963 387.97 486.33V443.79C387.966 413.807 377.517 384.762 358.421 361.647C339.325 338.533 312.773 322.792 283.33 317.13Z" fill="white"/>
<path d="M353 483.54H48.4003L40.3203 334.67C40.1474 331.544 40.6144 328.416 41.6926 325.478C42.7708 322.539 44.4375 319.851 46.5908 317.579C48.744 315.307 51.3383 313.498 54.215 312.264C57.0916 311.029 60.1899 310.395 63.3202 310.4H338.15C341.281 310.395 344.379 311.029 347.255 312.264C350.132 313.498 352.727 315.307 354.88 317.579C357.033 319.851 358.7 322.539 359.778 325.478C360.856 328.416 361.323 331.544 361.15 334.67L353 483.54Z" fill="white"/>
<path d="M377.82 471.62H23.63C19.3521 471.62 15.2493 473.32 12.2244 476.344C9.1994 479.369 7.5 483.472 7.5 487.75C7.5 492.028 9.1994 496.131 12.2244 499.156C15.2493 502.181 19.3521 503.88 23.63 503.88H377.82C382.098 503.88 386.201 502.181 389.226 499.156C392.251 496.131 393.95 492.028 393.95 487.75C393.95 483.472 392.251 479.369 389.226 476.344C386.201 473.32 382.098 471.62 377.82 471.62Z" fill="#F8F9FF"/>
<path d="M220.84 471.62C220.865 458.411 225.782 445.679 234.64 435.88L234.84 435.66C239.387 430.566 242.737 424.518 244.643 417.961C246.549 411.404 246.964 404.503 245.856 397.765C244.749 391.027 242.147 384.622 238.243 379.02C234.338 373.418 229.229 368.761 223.29 365.39C222.692 365.049 222.014 364.871 221.326 364.874C220.637 364.876 219.961 365.059 219.366 365.404C218.77 365.749 218.275 366.244 217.93 366.84C217.585 367.436 217.402 368.111 217.4 368.8V402.8C217.397 405.538 216.308 408.163 214.371 410.098C212.434 412.033 209.808 413.12 207.07 413.12H194.37C191.632 413.12 189.006 412.033 187.069 410.098C185.132 408.163 184.042 405.538 184.04 402.8V368.8C184.039 368.112 183.858 367.436 183.515 366.839C183.171 366.243 182.677 365.748 182.081 365.402C181.486 365.057 180.81 364.874 180.122 364.872C179.434 364.87 178.757 365.048 178.16 365.39C172.22 368.759 167.109 373.416 163.203 379.018C159.297 384.62 156.695 391.025 155.587 397.764C154.48 404.503 154.895 411.404 156.802 417.962C158.709 424.519 162.061 430.566 166.61 435.66L166.8 435.88C175.662 445.676 180.579 458.41 180.6 471.62H220.84Z" fill="#D0E8FA"/>
<path d="M288 151.9H282.42L282.32 129.42C282.13 82.3099 243.26 49.6799 200.16 49.4199C157.25 50.0799 118.46 82.8699 118.66 130.16L118.72 146.01V152.64H113.14C111.184 152.659 109.251 153.064 107.451 153.832C105.651 154.599 104.02 155.713 102.652 157.11C101.283 158.508 100.203 160.162 99.4732 161.977C98.7438 163.792 98.3792 165.734 98.4003 167.69L98.4702 184.3C98.465 186.257 98.8456 188.196 99.5903 190.006C100.335 191.816 101.429 193.461 102.81 194.848C104.191 196.234 105.832 197.335 107.639 198.087C109.446 198.839 111.383 199.227 113.34 199.23H118.94C119.49 220.98 128.61 241.89 144.94 256.04C158.12 267.43 176.63 277.35 201.03 277.52C225.42 277.14 243.84 267.07 256.93 255.52C273.19 241.23 282.14 220.25 282.51 198.52H288.11C290.081 198.516 292.031 198.122 293.848 197.36C295.665 196.599 297.313 195.485 298.698 194.083C300.082 192.681 301.175 191.018 301.914 189.192C302.652 187.365 303.021 185.41 303 183.44L302.93 166.83C302.934 164.873 302.553 162.935 301.808 161.126C301.062 159.316 299.968 157.672 298.587 156.285C297.207 154.899 295.566 153.798 293.76 153.046C291.954 152.293 290.017 151.904 288.06 151.9H288Z" fill="white"/>
<path d="M282.58 138.36V200.19H299C303.422 200.19 307.663 198.434 310.791 195.308C313.919 192.182 315.678 187.942 315.68 183.52V155.03C315.68 152.84 315.249 150.671 314.41 148.648C313.572 146.625 312.343 144.787 310.794 143.239C309.245 141.691 307.406 140.463 305.383 139.626C303.359 138.789 301.19 138.359 299 138.36H282.58Z" fill="white"/>
<path d="M118.87 138.36V200.19H102.45C98.0326 200.19 93.7955 198.436 90.6699 195.314C87.5442 192.193 85.7856 187.958 85.7803 183.54V155.05C85.7803 152.861 86.2114 150.693 87.0492 148.671C87.8869 146.648 89.1148 144.81 90.6628 143.262C92.2107 141.714 94.0484 140.487 96.0709 139.649C98.0934 138.811 100.261 138.38 102.45 138.38L118.87 138.36Z" fill="white"/>
<path d="M277.07 69.0198H276.23C273.995 69.0171 271.852 68.1281 270.272 66.5477C268.692 64.9674 267.803 62.8248 267.8 60.5898C267.8 53.9594 265.166 47.6005 260.478 42.9121C255.789 38.2237 249.431 35.5898 242.8 35.5898H163.37C146.396 35.5898 130.118 42.3326 118.115 54.335C106.113 66.3373 99.3701 82.616 99.3701 99.5898V141.89C99.3697 144.919 100.312 147.873 102.066 150.342C103.82 152.811 106.3 154.673 109.16 155.67L124.93 161.16C126.207 161.605 127.572 161.739 128.911 161.548C130.25 161.358 131.523 160.85 132.626 160.067C133.728 159.284 134.627 158.248 135.247 157.047C135.867 155.845 136.191 154.512 136.19 153.16V123.33C136.121 116.407 138.804 109.739 143.65 104.794C148.496 99.8491 155.107 97.0311 162.03 96.9598H162.34C166.709 96.9441 171.052 97.6191 175.21 98.9598C182.518 101.398 190.166 102.667 197.87 102.72H203.55C211.254 102.667 218.902 101.398 226.21 98.9598C230.368 97.6206 234.712 96.9456 239.08 96.9598H239.39C246.313 97.0311 252.925 99.8491 257.771 104.794C262.616 109.739 265.299 116.407 265.23 123.33V153.16C265.23 154.512 265.553 155.845 266.173 157.047C266.793 158.248 267.692 159.284 268.794 160.067C269.897 160.85 271.171 161.358 272.51 161.548C273.848 161.739 275.213 161.605 276.49 161.16L292.25 155.67C295.112 154.675 297.594 152.814 299.35 150.344C301.106 147.875 302.05 144.92 302.05 141.89V93.8898C302.016 87.2854 299.369 80.9629 294.689 76.3031C290.009 71.6433 283.675 69.025 277.07 69.0198Z" fill="#D0E8FA"/>
<path d="M257.32 245.77H238.5C235.052 245.77 231.746 244.4 229.308 241.962C226.87 239.524 225.5 236.218 225.5 232.77C225.5 229.322 226.87 226.016 229.308 223.578C231.746 221.14 235.052 219.77 238.5 219.77H257.32C260.768 219.77 264.074 221.14 266.512 223.578C268.95 226.016 270.32 229.322 270.32 232.77C270.32 236.218 268.95 239.524 266.512 241.962C264.074 244.4 260.768 245.77 257.32 245.77Z" fill="#D0E8FA"/>
<path d="M470.92 36.9399H405.48C403.491 36.9399 401.583 37.7301 400.177 39.1366C398.77 40.5431 397.98 42.4508 397.98 44.4399C397.98 46.4291 398.77 48.3366 400.177 49.7432C401.583 51.1497 403.491 51.9399 405.48 51.9399H470.92C472.909 51.9399 474.817 51.1497 476.223 49.7432C477.63 48.3366 478.42 46.4291 478.42 44.4399C478.42 42.4508 477.63 40.5431 476.223 39.1366C474.817 37.7301 472.909 36.9399 470.92 36.9399Z" fill="#23242B"/>
<path d="M368.32 51.9399H376.32C378.309 51.9399 380.217 51.1497 381.623 49.7432C383.03 48.3366 383.82 46.4291 383.82 44.4399C383.82 42.4508 383.03 40.5431 381.623 39.1366C380.217 37.7301 378.309 36.9399 376.32 36.9399H368.32C366.331 36.9399 364.423 37.7301 363.017 39.1366C361.61 40.5431 360.82 42.4508 360.82 44.4399C360.82 46.4291 361.61 48.3366 363.017 49.7432C364.423 51.1497 366.331 51.9399 368.32 51.9399Z" fill="#23242B"/>
<path d="M368.32 87.1699H470.92C472.909 87.1699 474.817 86.3798 476.223 84.9733C477.63 83.5667 478.42 81.659 478.42 79.6699C478.42 77.6808 477.63 75.7731 476.223 74.3666C474.817 72.9601 472.909 72.1699 470.92 72.1699H368.32C366.331 72.1699 364.423 72.9601 363.017 74.3666C361.61 75.7731 360.82 77.6808 360.82 79.6699C360.82 81.659 361.61 83.5667 363.017 84.9733C364.423 86.3798 366.331 87.1699 368.32 87.1699Z" fill="#23242B"/>
<path d="M395.44 443.79C395.4 413.745 385.484 384.546 367.22 360.69L368.61 335.09C368.838 330.948 368.219 326.802 366.79 322.906C365.362 319.011 363.153 315.449 360.3 312.436C357.447 309.424 354.009 307.025 350.197 305.387C346.385 303.75 342.279 302.907 338.13 302.91H256C254.126 301.592 252.596 299.843 251.54 297.811C250.483 295.778 249.931 293.521 249.93 291.23V270.29C262.66 262.05 271.59 252.66 278.16 241.49H292.67C300.743 241.482 308.484 238.271 314.192 232.563C319.901 226.854 323.112 219.114 323.12 211.04V155.04C323.122 150.5 321.844 146.051 319.434 142.204C317.023 138.357 313.576 135.268 309.49 133.29V93.9801C309.479 85.3753 306.056 77.1263 299.97 71.0427C293.885 64.9592 285.635 61.5381 277.03 61.5302H276.19C275.943 61.5302 275.707 61.4322 275.532 61.2578C275.358 61.0834 275.26 60.8469 275.26 60.6002C275.252 51.9955 271.831 43.7452 265.747 37.6598C259.664 31.5744 251.415 28.1507 242.81 28.1401H163.38C144.421 28.1613 126.244 35.7023 112.838 49.1084C99.4319 62.5145 91.891 80.691 91.8698 99.6501V133.29C87.7832 135.268 84.3368 138.357 81.926 142.204C79.5152 146.051 78.2376 150.5 78.2398 155.04V183.54C78.2477 189.948 80.7968 196.091 85.3278 200.622C89.8588 205.153 96.0019 207.702 102.41 207.71H112.09C114.59 228.9 124.54 248.26 140.09 261.71C143.664 264.8 147.446 267.64 151.41 270.21V291.21C151.403 293.502 150.846 295.759 149.786 297.791C148.727 299.824 147.195 301.572 145.32 302.89H63.3098C59.1608 302.887 55.0547 303.73 51.2427 305.368C47.4306 307.005 43.9929 309.404 41.1398 312.416C38.2866 315.429 36.0781 318.991 34.6492 322.886C33.2204 326.782 32.6013 330.927 32.8298 335.07L34.2198 360.67C15.9554 384.526 6.03977 413.725 5.9998 443.77V472.02C2.96268 475.42 0.974649 479.626 0.275738 484.13C-0.423173 488.635 0.196946 493.246 2.0612 497.406C3.92545 501.566 6.95411 505.097 10.7815 507.573C14.6088 510.049 19.0712 511.365 23.6298 511.36H377.82C382.377 511.363 386.839 510.046 390.664 507.569C394.49 505.092 397.517 501.561 399.38 497.401C401.243 493.241 401.863 488.632 401.163 484.128C400.464 479.624 398.476 475.419 395.44 472.02V443.79ZM380.44 443.79V464.27C379.57 464.175 378.695 464.125 377.82 464.12H361.61L365.84 386.12C375.389 403.841 380.405 423.65 380.44 443.78V443.79ZM307.44 151.37C307.945 152.524 308.208 153.77 308.21 155.03V183.54C308.204 185.971 307.237 188.3 305.518 190.019C303.8 191.737 301.47 192.705 299.04 192.71H290.12V164.44L294.74 162.83C297.503 161.852 300.044 160.335 302.217 158.368C304.391 156.401 306.152 154.022 307.4 151.37H307.44ZM257.36 238.27H238.5C237.098 238.186 235.782 237.569 234.82 236.547C233.858 235.525 233.322 234.174 233.322 232.77C233.322 231.366 233.858 230.015 234.82 228.993C235.782 227.971 237.098 227.355 238.5 227.27H257.32C258.07 227.225 258.822 227.334 259.528 227.589C260.235 227.845 260.881 228.243 261.429 228.758C261.976 229.274 262.412 229.895 262.71 230.585C263.008 231.275 263.162 232.019 263.162 232.77C263.162 233.522 263.008 234.265 262.71 234.955C262.412 235.645 261.976 236.267 261.429 236.782C260.881 237.297 260.235 237.695 259.528 237.951C258.822 238.207 258.07 238.315 257.32 238.27H257.36ZM292.76 226.5H285.17C287.306 220.409 288.761 214.101 289.51 207.69H299C302.145 207.69 305.26 207.075 308.17 205.88V211.04C308.175 215.144 306.551 219.082 303.653 221.989C300.756 224.895 296.824 226.532 292.72 226.54L292.76 226.5ZM106.92 99.6401C106.936 84.6594 112.893 70.2966 123.485 59.7026C134.077 49.1087 148.439 43.1487 163.42 43.1301H242.85C247.478 43.1354 251.915 44.977 255.186 48.2505C258.458 51.524 260.297 55.9621 260.3 60.5902C260.318 64.8094 262.002 68.8505 264.986 71.834C267.969 74.8175 272.011 76.5017 276.23 76.5201H277.07C281.698 76.5228 286.136 78.3618 289.409 81.6334C292.683 84.9051 294.525 89.3421 294.53 93.9702V141.97C294.527 143.444 294.066 144.88 293.212 146.08C292.357 147.28 291.151 148.185 289.76 148.67L274 154.16C273.853 154.205 273.699 154.215 273.548 154.19C273.396 154.165 273.253 154.106 273.128 154.017C273.004 153.929 272.901 153.812 272.829 153.677C272.756 153.543 272.715 153.393 272.71 153.24V123.44C272.8 101.68 252.44 82.7101 223.9 91.8801C208.769 96.4848 192.611 96.4848 177.48 91.8801C149.24 82.8001 128.58 101.44 128.67 123.41V153.24C128.664 153.393 128.623 153.543 128.551 153.677C128.478 153.812 128.376 153.929 128.251 154.017C128.127 154.106 127.983 154.165 127.832 154.19C127.681 154.215 127.526 154.205 127.38 154.16L111.61 148.67C110.22 148.185 109.015 147.279 108.162 146.079C107.309 144.878 106.85 143.443 106.85 141.97V99.6702L106.92 99.6401ZM93.2798 183.54V155.05C93.282 153.79 93.5441 152.544 94.0498 151.39C95.3029 154.043 97.071 156.421 99.2513 158.385C101.432 160.349 103.98 161.86 106.75 162.83L111.37 164.44V192.71H102.45C100.019 192.708 97.6877 191.74 95.9686 190.021C94.2494 188.302 93.2825 185.971 93.2798 183.54ZM126.51 199.05C126.26 189.18 126.41 178.72 126.37 169.14C126.83 169.14 127.29 169.2 127.76 169.2C132.003 169.2 136.073 167.514 139.074 164.514C142.074 161.513 143.76 157.444 143.76 153.2V123.35C143.71 111.17 154.63 100.24 172.98 106.14C191.093 111.72 210.466 111.72 228.58 106.14C246.06 100.52 257.86 110.41 257.8 123.38V153.2C257.801 155.416 258.263 157.607 259.156 159.635C260.048 161.663 261.352 163.483 262.985 164.981C264.618 166.478 266.545 167.62 268.642 168.335C270.739 169.049 272.962 169.32 275.17 169.13V199.64C274.952 206.024 273.91 212.353 272.07 218.47C270.165 216.509 267.886 214.949 265.368 213.885C262.85 212.82 260.144 212.271 257.41 212.27H238.5C233.174 212.437 228.121 214.669 224.413 218.496C220.704 222.322 218.63 227.441 218.63 232.77C218.63 238.099 220.704 243.218 224.413 247.045C228.121 250.871 233.174 253.104 238.5 253.27H248C234.656 263.91 218.145 269.797 201.08 270C163.22 269.7 127.56 241.73 126.48 199L126.51 199.05ZM166.51 291.25V278.12C177.491 282.65 189.251 284.993 201.13 285.02H201.3C212.869 284.899 224.309 282.578 235.01 278.18V291.25C235.011 295.27 235.841 299.246 237.45 302.93H164C165.608 299.246 166.438 295.27 166.44 291.25H166.51ZM35.6398 386.15L36.8298 407.98C36.8837 408.965 37.1309 409.93 37.5576 410.819C37.9843 411.708 38.5819 412.505 39.3164 413.163C40.0509 413.822 40.9079 414.329 41.8385 414.656C42.769 414.983 43.7549 415.124 44.7398 415.07C45.7247 415.016 46.6894 414.769 47.5787 414.342C48.4681 413.916 49.2646 413.318 49.923 412.583C50.5814 411.849 51.0886 410.992 51.4158 410.062C51.743 409.131 51.8837 408.145 51.8298 407.16L47.8298 334.3C47.7128 332.193 48.027 330.084 48.7533 328.103C49.4795 326.121 50.6025 324.309 52.0535 322.776C53.5045 321.244 55.253 320.024 57.1919 319.19C59.1309 318.357 61.2194 317.928 63.3298 317.93H338.16C340.27 317.93 342.358 318.359 344.296 319.193C346.234 320.027 347.982 321.247 349.433 322.779C350.883 324.312 352.007 326.123 352.733 328.104C353.46 330.085 353.775 332.193 353.66 334.3L346.61 464.14H229C230.455 455.488 234.351 447.432 240.23 440.92L240.45 440.68C245.738 434.749 249.633 427.71 251.849 420.079C254.065 412.448 254.546 404.418 253.258 396.576C251.969 388.735 248.943 381.281 244.402 374.76C239.86 368.24 233.918 362.817 227.01 358.89C225.271 357.902 223.303 357.388 221.304 357.398C219.304 357.408 217.342 357.941 215.612 358.946C213.883 359.951 212.448 361.391 211.449 363.124C210.45 364.856 209.923 366.82 209.92 368.82V402.82C209.917 403.569 209.618 404.286 209.087 404.815C208.557 405.343 207.839 405.64 207.09 405.64H194.39C193.641 405.64 192.923 405.343 192.392 404.815C191.862 404.286 191.562 403.569 191.56 402.82V368.82C191.56 366.819 191.034 364.853 190.036 363.119C189.038 361.385 187.602 359.943 185.872 358.938C184.142 357.932 182.178 357.399 180.177 357.391C178.176 357.382 176.208 357.899 174.47 358.89C167.559 362.818 161.615 368.243 157.073 374.766C152.531 381.29 149.507 388.747 148.221 396.592C146.935 404.436 147.421 412.468 149.642 420.101C151.864 427.733 155.765 434.771 161.06 440.7L161.25 440.92C167.129 447.432 171.025 455.488 172.48 464.14H54.8598L53.6498 441.97C53.5424 439.981 52.6492 438.116 51.1667 436.786C49.6843 435.455 47.7339 434.768 45.7448 434.875C43.7557 434.983 41.8907 435.876 40.5601 437.358C39.2295 438.841 38.5424 440.791 38.6498 442.78L39.7998 464.14H23.5998C22.7211 464.144 21.8432 464.194 20.9698 464.29V443.81C21.0049 423.68 26.0207 403.871 35.5698 386.15H35.6398ZM187.64 464.15C186.082 451.765 180.763 440.156 172.4 430.89L172.22 430.69C168.781 426.837 166.158 422.327 164.509 417.432C162.86 412.538 162.22 407.36 162.626 402.211C163.033 397.062 164.478 392.049 166.874 387.474C169.271 382.899 172.569 378.856 176.57 375.59V402.86C176.575 407.586 178.456 412.117 181.799 415.458C185.141 418.8 189.674 420.678 194.4 420.68H207.09C211.816 420.678 216.348 418.8 219.691 415.458C223.034 412.117 224.915 407.586 224.92 402.86V375.54C228.92 378.809 232.217 382.855 234.612 387.432C237.007 392.01 238.45 397.025 238.854 402.176C239.259 407.326 238.617 412.505 236.966 417.4C235.315 422.296 232.69 426.806 229.25 430.66L229.09 430.84C220.722 440.103 215.402 451.714 213.85 464.1L187.64 464.15ZM377.84 496.41H23.6298C21.341 496.41 19.1459 495.501 17.5274 493.882C15.909 492.264 14.9998 490.069 14.9998 487.78C14.9998 485.491 15.909 483.296 17.5274 481.678C19.1459 480.059 21.341 479.15 23.6298 479.15H377.82C380.109 479.15 382.304 480.059 383.922 481.678C385.541 483.296 386.45 485.491 386.45 487.78C386.45 490.069 385.541 492.264 383.922 493.882C382.304 495.501 380.109 496.41 377.82 496.41H377.84Z" fill="#23242B"/>
<path d="M504.5 51.3301C506.489 51.3301 508.397 50.5398 509.803 49.1333C511.21 47.7268 512 45.8192 512 43.8301V29.3101C511.989 21.5398 508.898 14.0908 503.404 8.59644C497.909 3.10204 490.46 0.0105826 482.69 0H356.55C348.778 0.00793689 341.327 3.09821 335.83 8.5929C330.333 14.0876 327.241 21.5381 327.23 29.3101V92.4C327.238 100.173 330.33 107.625 335.827 113.12C341.324 118.615 348.777 121.705 356.55 121.71C357.938 121.713 359.268 122.266 360.249 123.248C361.229 124.231 361.78 125.562 361.78 126.95V165.95C361.788 168.654 362.681 171.281 364.322 173.43C365.963 175.579 368.262 177.133 370.868 177.854C373.474 178.574 376.244 178.423 378.756 177.422C381.268 176.421 383.384 174.626 384.78 172.31L413.61 124.24C414.076 123.465 414.734 122.823 415.521 122.376C416.307 121.93 417.195 121.693 418.1 121.69H482.68C490.451 121.682 497.902 118.592 503.396 113.097C508.891 107.602 511.982 100.151 511.99 92.38V78.87C511.99 76.8809 511.2 74.9733 509.793 73.5668C508.387 72.1602 506.479 71.37 504.49 71.37C502.501 71.37 500.593 72.1602 499.187 73.5668C497.78 74.9733 496.99 76.8809 496.99 78.87V92.38C496.985 96.1736 495.475 99.8104 492.793 102.493C490.11 105.175 486.474 106.685 482.68 106.69H418.1C414.606 106.701 411.174 107.612 408.134 109.333C405.093 111.055 402.547 113.53 400.74 116.52L376.74 156.52V126.96C376.735 121.595 374.602 116.452 370.81 112.658C367.017 108.863 361.875 106.728 356.51 106.72C352.715 106.717 349.075 105.209 346.391 102.526C343.706 99.8436 342.195 96.2054 342.19 92.41V29.3201C342.195 25.5247 343.706 21.8864 346.391 19.2036C349.075 16.5208 352.715 15.0127 356.51 15.01H482.65C486.444 15.0153 490.08 16.5247 492.763 19.2072C495.445 21.8897 496.955 25.5264 496.96 29.3201V43.8401C496.96 45.8292 497.75 47.7368 499.157 49.1433C500.563 50.5498 502.471 51.3401 504.46 51.3401L504.5 51.3301Z" fill="#23242B"/>
</g>
<defs>
<clipPath id="clip0">
<rect width="512" height="512" fill="white"/>
</clipPath>
</defs>
</svg>
